<svg xmlns="http://www.w3.org/2000/svg" xmlns:xlink="http://www.w3.org/1999/xlink" width="500" zoomAndPan="magnify" viewBox="0 0 375 374.999991" height="500" preserveAspectRatio="xMidYMid meet" version="1.0"><rect x="-37.5" width="450" fill="#ffffff" y="-37.499999" height="449.999989" fill-opacity="1"/><rect x="-37.5" width="450" fill="#d9d9d9" y="-37.499999" height="449.999989" fill-opacity="1"/><path fill="#000000" d="M 187.777344 0.09375 C 211.648438 0.09375 234.441406 4.859375 255.671875 12.796875 C 248.753906 17.015625 241.867188 21.78125 236.035156 27.070312 C 220.667969 22.832031 204.226562 20.1875 187.773438 20.1875 C 141.628906 20.1875 99.722656 38.703125 68.957031 68.835938 C 38.734375 99.507812 20.148438 141.289062 20.148438 187.308594 C 20.148438 233.292969 38.734375 275.074219 68.957031 305.222656 C 96.53125 332.726562 133.675781 350.699219 174.511719 353.886719 L 174.511719 373.960938 C 127.839844 370.808594 85.933594 350.15625 55.167969 319.5 C 21.214844 285.652344 0 239.125 0 187.308594 C 0 135.453125 21.214844 88.925781 55.171875 55.082031 C 89.105469 21.238281 135.796875 0.09375 187.777344 0.09375 Z M 230.742188 190.460938 C 267.847656 179.371094 299.15625 153.445312 316.660156 118.53125 C 320.390625 110.089844 323.582031 101.628906 326.226562 93.167969 C 344.234375 120.125 355.398438 152.375 355.398438 187.308594 C 355.398438 233.292969 336.300781 275.074219 306.042969 305.222656 C 281.65625 329.535156 249.839844 346.457031 213.75 352.292969 L 213.75 250.757812 C 213.75 168.792969 167.085938 94.761719 85.933594 82.585938 C 72.144531 119.074219 74.265625 159.804688 91.769531 194.699219 C 108.746094 229.597656 140.035156 255.503906 177.160156 266.628906 C 183.535156 206.875 156.488281 148.15625 106.625 114.328125 C 158.0625 139.167969 191.507812 190.460938 194.152344 245.976562 C 194.152344 246.519531 194.152344 248.621094 194.152344 250.757812 L 194.152344 324.789062 C 194.152344 349.101562 194.152344 338.015625 194.152344 362.871094 L 194.152344 373.960938 C 243.460938 372.367188 288.03125 351.75 320.390625 319.5 C 354.34375 285.652344 375 239.125 375 187.308594 C 375 141.289062 358.585938 98.984375 330.972656 66.1875 C 332.058594 46.097656 329.414062 26.003906 321.988281 6.4375 C 251.941406 17.015625 207.914062 73.054688 196.800781 140.746094 C 203.683594 151.328125 209.507812 162.957031 213.75 175.132812 C 213.75 172.488281 213.75 170.371094 213.75 169.84375 C 216.429688 113.785156 249.839844 63.019531 301.296875 37.636719 C 251.433594 72.003906 224.367188 130.183594 230.742188 190.460938 Z M 230.742188 190.460938 " fill-opacity="1" fill-rule="evenodd"/></svg>